<svg width="240" height="241" viewBox="0 0 240 241" fill="none" xmlns="http://www.w3.org/2000/svg">
<path d="M219.603 176.852C232.895 166.663 240.303 120.782 211.304 74.7704C182.306 28.759 149.385 10.4188 117.95 13.7891C86.5155 17.1594 76.2785 36.298 62.2679 39.9345C48.2574 43.5709 25.7942 38.3025 19.0403 62.4475C12.2864 86.5924 35.7484 105.315 31.3492 116.818C26.9501 128.322 22.1724 118.48 12.6353 134.868C3.0981 151.255 8.21013 192.897 57.1388 213.855C106.067 234.813 163.625 231.195 177.049 212.486C190.474 193.778 172.396 185.928 182.479 181.63C192.562 177.332 206.311 187.041 219.603 176.852Z" fill="#EEEEEE"/>
<path d="M53.0297 98.2582L109.017 120.653C114.441 122.823 117.153 123.908 120 123.908C122.848 123.908 125.562 122.823 130.986 120.654L186.973 98.2588C189.923 97.0789 191.398 96.4889 191.398 95.4734C191.398 95.3458 191.374 95.2249 191.328 95.1088C191.004 94.3003 189.552 93.7196 186.973 92.6879L130.986 70.2929C125.562 68.1234 122.848 67.0381 120 67.0381C117.153 67.0381 114.441 68.1229 109.017 70.2924L53.0297 92.6874C50.4504 93.7191 48.9988 94.2997 48.6748 95.1082C48.6282 95.2244 48.605 95.3452 48.605 95.4728C48.605 96.4884 50.0799 97.0783 53.0297 98.2582Z" fill="#A3A3A3"/>
<path d="M193.937 147.228L152.02 163.994C153.439 164.963 156.777 167.255 158.781 168.67C161.287 170.438 163.35 170.688 168.213 168.67C172.103 167.056 186.983 161.218 193.937 158.502V147.228Z" fill="#A3A3A3"/>
<path d="M120 123.908L107.123 155.951C105.546 159.737 104.439 162.394 103.21 164.172C104.259 164.583 106.847 165.582 108.807 166.29C111.256 167.175 114.881 165.892 115.748 162.275C116.614 158.658 120 144.586 120 144.586V123.908Z" fill="#A3A3A3"/>
<path d="M43.3906 60.4429L62.2652 62.347" stroke="#A3A3A3" stroke-width="2.10938" stroke-linecap="round" stroke-linejoin="round"/>
<path d="M196.617 60.4429L177.743 62.347" stroke="#A3A3A3" stroke-width="2.10938" stroke-linecap="round" stroke-linejoin="round"/>
<path d="M62.9375 34.125L76.6182 42.7208" stroke="#A3A3A3" stroke-width="2.10938" stroke-linecap="round" stroke-linejoin="round"/>
<path d="M177.07 34.125L163.39 42.7208" stroke="#A3A3A3" stroke-width="2.10938" stroke-linecap="round" stroke-linejoin="round"/>
<path d="M109.017 209.374C114.441 211.543 117.153 212.628 120 212.628C120 209.771 120 206.915 120 204.058C120 209.374 113.639 211.222 109.017 209.374Z" fill="#A3A3A3"/>
<path d="M120 212.628C122.848 212.628 125.562 211.544 130.986 209.374C126.264 211.263 120 209.374 120 204.058V212.628Z" fill="#A3A3A3"/>
<path d="M109.017 209.374L64.6564 191.629C55.6527 188.028 51.1508 186.227 48.6084 182.472C46.0661 178.717 46.0661 173.868 46.0661 164.171V153.505M109.017 209.374C114.441 211.543 117.153 212.628 120 212.628M109.017 209.374C113.639 211.222 120 209.374 120 204.058M120 212.628C122.848 212.628 125.562 211.544 130.986 209.374M120 212.628C120 209.771 120 206.915 120 204.058M120 212.628V204.058M120 123.907C117.153 123.907 114.441 122.822 109.017 120.652L53.0297 98.2573C50.0799 97.0773 48.605 96.4874 48.605 95.4718C48.605 95.3443 48.6282 95.2234 48.6748 95.1073M120 123.907L107.123 155.95C104.477 162.301 103.154 165.477 100.359 166.651C97.5643 167.825 94.3703 166.548 87.9823 163.993L42.1539 145.661C35.3209 142.928 31.9044 141.561 30.7348 138.591C29.5652 135.621 31.1325 132.292 34.2671 125.634L48.0955 96.2601L48.6748 95.1073M120 123.907C122.848 123.907 125.562 122.822 130.986 120.653L186.973 98.2578C189.923 97.0779 191.398 96.4879 191.398 95.4724C191.398 95.3448 191.374 95.224 191.328 95.1078M120 123.907L132.879 155.951C135.525 162.302 136.849 165.477 139.643 166.652C142.438 167.826 145.632 166.548 152.02 163.993L193.937 147.227M120 123.907C120 123.907 120 198.743 120 204.058M48.6748 95.1073C48.9988 94.2988 50.4504 93.7181 53.0297 92.6864L109.017 70.2914C114.441 68.1219 117.153 67.0371 120 67.0371C122.848 67.0371 125.562 68.1224 130.986 70.292L186.973 92.687C189.552 93.7187 191.004 94.2993 191.328 95.1078M130.986 209.374L175.346 191.63C184.35 188.028 188.852 186.228 191.394 182.472C193.937 178.717 193.937 173.869 193.937 164.171V147.227M130.986 209.374C126.264 211.263 120 209.374 120 204.058M193.937 147.227L197.849 145.662C204.682 142.928 208.098 141.562 209.268 138.592C210.438 135.622 208.87 132.292 205.736 125.634L191.907 96.2607L191.328 95.1078" stroke="#A3A3A3" stroke-width="1.875" stroke-linecap="round"/>
<path d="M113.286 43.4302C116.185 37.1463 117.634 34.0043 120 34.0043C122.366 34.0043 123.815 37.1463 126.714 43.4302L129.905 50.3485C130.752 52.1849 131.175 53.1031 131.955 53.6699C132.735 54.2366 133.74 54.3557 135.748 54.5938L143.314 55.4908C150.186 56.3056 153.622 56.713 154.353 58.9631C155.084 61.2132 152.544 63.5625 147.463 68.261L141.869 73.4338C140.385 74.8068 139.642 75.4934 139.344 76.4104C139.046 77.3275 139.243 78.3192 139.637 80.3028L141.122 87.7755C142.471 94.563 143.145 97.9568 141.231 99.3474C139.317 100.738 136.298 99.048 130.259 95.6679L123.611 91.9466C121.847 90.9588 120.964 90.4649 120 90.4649C119.036 90.4649 118.153 90.9588 116.389 91.9466L109.741 95.6678C103.702 99.048 100.683 100.738 98.7687 99.3474C96.8547 97.9568 97.529 94.563 98.8777 87.7755L100.363 80.3028C100.757 78.3192 100.954 77.3275 100.656 76.4104C100.358 75.4934 99.6154 74.8068 98.1306 73.4338L92.5371 68.261C87.4564 63.5625 84.916 61.2132 85.6471 58.9631C86.3782 56.713 89.8143 56.3056 96.6864 55.4908L104.252 54.5938C106.26 54.3557 107.265 54.2366 108.045 53.6699C108.825 53.1031 109.248 52.1849 110.095 50.3485L113.286 43.4302Z" fill="#616161"/>
</svg>
