<svg width="24" height="25" viewBox="0 0 24 25" fill="none" xmlns="http://www.w3.org/2000/svg">
<g clip-path="url(#clip0_2914_71148)">
<path fill-rule="evenodd" clip-rule="evenodd" d="M24 5.45196V19.052C24.0014 19.7352 23.8678 20.412 23.607 21.0435C23.3461 21.675 22.9631 22.2488 22.48 22.732C21.9969 23.2151 21.4231 23.5981 20.7916 23.8589C20.1601 24.1198 19.4833 24.2533 18.8 24.252H5.20001C4.51675 24.2533 3.83995 24.1198 3.20844 23.8589C2.57693 23.5981 2.00315 23.2151 1.52001 22.732C1.03687 22.2488 0.653897 21.675 0.393056 21.0435C0.132216 20.412 -0.00135472 19.7352 1.03584e-05 19.052V5.45196C-0.00135472 4.76871 0.132216 4.0919 0.393056 3.4604C0.653897 2.82889 1.03687 2.2551 1.52001 1.77196C2.00315 1.28883 2.57693 0.905851 3.20844 0.64501C3.83995 0.384169 4.51675 0.250598 5.20001 0.251963H18.8C19.4833 0.250598 20.1601 0.384169 20.7916 0.64501C21.4231 0.905851 21.9969 1.28883 22.48 1.77196C22.9631 2.2551 23.3461 2.82889 23.607 3.4604C23.8678 4.0919 24.0014 4.76871 24 5.45196Z" fill="url(#paint0_linear_2914_71148)"/>
<path fill-rule="evenodd" clip-rule="evenodd" d="M16.5234 14.0518H19.5034C19.7952 14.0518 20.075 14.1677 20.2813 14.3739C20.4875 14.5802 20.6034 14.86 20.6034 15.1518C20.6034 15.4435 20.4875 15.7233 20.2813 15.9296C20.075 16.1359 19.7952 16.2518 19.5034 16.2518H16.5234V14.0518Z" fill="white"/>
<path fill-rule="evenodd" clip-rule="evenodd" d="M12.8584 14.0519C13.0663 14.0507 13.2723 14.0907 13.4645 14.1697C13.6568 14.2486 13.8315 14.365 13.9784 14.5119C14.1254 14.6589 14.2417 14.8336 14.3207 15.0258C14.3997 15.2181 14.4397 15.4241 14.4384 15.6319C14.4392 15.8444 14.3985 16.0551 14.3184 16.2519H4.49844C4.2067 16.2519 3.92691 16.136 3.72062 15.9298C3.51433 15.7235 3.39844 15.4437 3.39844 15.1519C3.39844 14.8602 3.51433 14.5804 3.72062 14.3741C3.92691 14.1678 4.2067 14.0519 4.49844 14.0519H12.8584ZM12.5784 6.81193V8.73193H11.2984L9.73844 6.05193C9.66992 5.93373 9.62537 5.80318 9.60735 5.66775C9.58932 5.53232 9.59818 5.39467 9.6334 5.26266C9.66862 5.13065 9.72953 5.00688 9.81263 4.89844C9.89572 4.78999 9.99939 4.69898 10.1177 4.63063C10.236 4.56228 10.3666 4.51793 10.5021 4.5001C10.6375 4.48227 10.7752 4.49132 10.9071 4.52674C11.0391 4.56215 11.1627 4.62323 11.2711 4.70649C11.3794 4.78974 11.4703 4.89354 11.5384 5.01193L12.5784 6.81193ZM13.6784 8.67193L19.1384 18.1319C19.2843 18.3839 19.3241 18.6835 19.2491 18.9648C19.1741 19.2461 18.9904 19.4861 18.7384 19.6319C18.4865 19.7778 18.1869 19.8176 17.9056 19.7426C17.6243 19.6676 17.3843 19.4839 17.2384 19.2319L13.9384 13.4919C13.6384 12.9319 13.4184 12.4919 13.2784 12.2519C12.9498 11.692 12.8111 11.0407 12.8832 10.3954C12.9553 9.75016 13.2343 9.14554 13.6784 8.67193Z" fill="white"/>
<path fill-rule="evenodd" clip-rule="evenodd" d="M9.19772 15.0522H6.65772L12.3977 5.11218C12.5436 4.86023 12.7836 4.67654 13.0649 4.60152C13.3462 4.52651 13.6458 4.56631 13.8977 4.71218C14.1497 4.85805 14.3334 5.09803 14.4084 5.37934C14.4834 5.66064 14.4436 5.96023 14.2977 6.21218L9.19772 15.0522ZM7.85772 17.3522L6.79772 19.2122C6.7255 19.3369 6.62941 19.4462 6.51493 19.5339C6.40046 19.6215 6.26986 19.6857 6.13057 19.7228C5.99128 19.76 5.84604 19.7693 5.70314 19.7503C5.56024 19.7314 5.42248 19.6844 5.29772 19.6122C5.17297 19.54 5.06366 19.4439 4.97604 19.3294C4.88842 19.2149 4.82421 19.0843 4.78706 18.945C4.74992 18.8057 4.74058 18.6605 4.75956 18.5176C4.77855 18.3747 4.8255 18.2369 4.89772 18.1122L5.67772 16.7522C5.91995 16.6317 6.18719 16.57 6.45772 16.5722C6.7399 16.5629 7.01927 16.6306 7.2659 16.768C7.51253 16.9054 7.71711 17.1074 7.85772 17.3522Z" fill="white"/>
</g>
<defs>
<linearGradient id="paint0_linear_2914_71148" x1="11.9998" y1="24.252" x2="11.9998" y2="0.251965" gradientUnits="userSpaceOnUse">
<stop stop-color="#1D6FF2"/>
<stop offset="1" stop-color="#1AC8FC"/>
</linearGradient>
<clipPath id="clip0_2914_71148">
<rect width="24" height="24" fill="white" transform="translate(0 0.251953)"/>
</clipPath>
</defs>
</svg>
